<?xml version="1.0" encoding="UTF-8"?>
<svg id="_レイヤー_1" data-name="レイヤー 1" xmlns="http://www.w3.org/2000/svg" viewBox="0 0 1920.01 300.9">
  <defs>
    <style>
      .cls-1 {
        fill: #fff;
        fill-rule: evenodd;
      }
    </style>
  </defs>
  <path class="cls-1" d="M300.9,0h35.82l164.78,195.29V0h28.66v229.25h-35.82L329.55,33.96v195.29h-28.66V0ZM1203.59,229.25c-7.6,0-14.89-3.02-20.26-8.39-5.38-5.37-8.4-12.66-8.4-20.26v-28.66c0-15.83,12.83-28.66,28.66-28.66h157.61c15.83,0,28.66,12.83,28.66,28.66v100.3c0,15.83-12.83,28.66-28.66,28.66h-179.1v-14.33h179.1c3.8,0,7.44-1.51,10.13-4.2,2.69-2.69,4.2-6.33,4.2-10.13v-42.99h-171.94ZM1375.53,171.94c0-7.91-6.41-14.33-14.33-14.33h-157.61c-7.92,0-14.33,6.41-14.33,14.33v28.66c0,7.91,6.41,14.33,14.33,14.33h171.94v-42.99ZM214.93,214.93h28.66v-100.3c0-15.83-12.83-28.66-28.66-28.66H42.99c-7.6,0-14.89,3.02-20.26,8.39-5.37,5.37-8.39,12.66-8.39,20.26v143.28c0,7.6,3.02,14.89,8.39,20.26,5.37,5.37,12.66,8.39,20.26,8.39h214.93v14.33H42.99c-23.74,0-42.99-19.25-42.99-42.99V114.63c0-23.74,19.25-42.99,42.99-42.99h171.94c23.74,0,42.99,19.25,42.99,42.99v114.63h-57.31v-57.31c0-3.8-1.51-7.44-4.2-10.13-2.69-2.69-6.33-4.2-10.13-4.2h-114.63c-3.8,0-7.44,1.51-10.13,4.2-2.69,2.69-4.2,6.33-4.2,10.13v28.66c0,3.8,1.51,7.44,4.2,10.13,2.69,2.69,6.33,4.2,10.13,4.2h114.63v14.33h-114.63c-7.6,0-14.89-3.02-20.26-8.39-5.37-5.37-8.39-12.66-8.39-20.26v-28.66c0-15.83,12.83-28.66,28.66-28.66h114.63c15.83,0,28.66,12.83,28.66,28.66v42.99ZM759.41,114.63c0-7.6-3.02-14.89-8.4-20.26-5.37-5.37-12.66-8.39-20.26-8.39h-157.61v-28.66h157.61c15.2,0,29.78,6.04,40.53,16.79,10.75,10.75,16.79,25.33,16.79,40.53v57.31c0,15.2-6.04,29.78-16.79,40.53-10.75,10.75-25.33,16.79-40.53,16.79h-121.79c-13.3,0-26.06-5.28-35.46-14.69-9.41-9.4-14.69-22.16-14.69-35.46,0-27.7,22.45-50.15,50.15-50.15h150.45v-14.33ZM730.75,200.6c7.6,0,14.89-3.02,20.26-8.39,5.38-5.37,8.4-12.66,8.4-20.26v-14.33h-150.45c-5.7,0-11.17,2.26-15.2,6.29-4.03,4.03-6.29,9.5-6.29,15.2h0c0,5.7,2.26,11.17,6.29,15.2,4.03,4.03,9.5,6.29,15.2,6.29h121.79ZM874.03,229.25c-15.2,0-29.78-6.04-40.53-16.79-10.75-10.75-16.79-25.33-16.79-40.53v-57.31c0-15.2,6.04-29.78,16.79-40.53,10.75-10.75,25.33-16.79,40.53-16.79h114.63c15.2,0,29.78,6.04,40.53,16.79,10.75,10.75,16.79,25.33,16.79,40.53v57.31c0,15.2-6.04,29.78-16.79,40.53-10.75,10.75-25.33,16.79-40.53,16.79h-114.63ZM1017.32,114.63c0-7.6-3.02-14.89-8.4-20.26-5.37-5.37-12.66-8.39-20.26-8.39h-114.63c-7.6,0-14.89,3.02-20.26,8.39-5.38,5.37-8.4,12.66-8.4,20.26v57.31c0,7.6,3.02,14.89,8.4,20.26,5.37,5.37,12.66,8.39,20.26,8.39h114.63c7.6,0,14.89-3.02,20.26-8.39,5.38-5.37,8.4-12.66,8.4-20.26v-57.31ZM1604.78,143.28c7.6,0,14.89,3.02,20.26,8.39,5.38,5.37,8.4,12.66,8.4,20.26v28.66c0,15.83-12.83,28.66-28.66,28.66h-157.61c-15.83,0-28.66-12.83-28.66-28.66v-100.3c0-15.83,12.83-28.66,28.66-28.66h179.1v14.33h-179.1c-3.8,0-7.44,1.51-10.13,4.2s-4.2,6.33-4.2,10.13v42.99h171.94ZM1432.84,200.6c0,7.91,6.41,14.33,14.33,14.33h157.61c7.92,0,14.33-6.41,14.33-14.33v-28.66c0-7.91-6.41-14.33-14.33-14.33h-171.94v42.99ZM1676.42,143.28v85.97h-14.33v-85.97h14.33ZM1060.3,214.93h85.97v14.33h-85.97v-14.33ZM1705.08,229.25v-85.97h214.93v14.33h-200.6v57.31h171.94c7.6,0,14.89,3.02,20.26,8.39,5.38,5.37,8.4,12.66,8.4,20.26v28.66c0,15.83-12.83,28.66-28.66,28.66h-186.27v-14.33h186.27c3.8,0,7.44-1.51,10.13-4.2,2.69-2.69,4.2-6.33,4.2-10.13v-28.66c0-3.8-1.51-7.44-4.2-10.13-2.69-2.69-6.33-4.2-10.13-4.2h-186.27Z"/>
</svg>