<?xml version="1.0" encoding="UTF-8"?>
<svg id="_レイヤー_1" data-name="レイヤー 1" xmlns="http://www.w3.org/2000/svg" viewBox="0 0 1024 160.48">
  <defs>
    <style>
      .cls-1 {
        fill-rule: evenodd;
      }
    </style>
  </defs>
  <path class="cls-1" d="M160.48,0h19.1l87.88,104.16V0h15.28v122.27h-19.1L175.76,18.11v104.16h-15.28V0ZM641.91,122.27c-4.05,0-7.94-1.61-10.81-4.48-2.87-2.87-4.48-6.75-4.48-10.81v-15.28c0-8.44,6.84-15.28,15.28-15.28h84.06c8.44,0,15.28,6.84,15.28,15.28v53.49c0,8.44-6.84,15.28-15.28,15.28h-95.52v-7.64h95.52c2.03,0,3.97-.81,5.4-2.24,1.43-1.43,2.24-3.38,2.24-5.4v-22.93h-91.7ZM733.61,91.7c0-4.22-3.42-7.64-7.64-7.64h-84.06c-4.22,0-7.64,3.42-7.64,7.64v15.28c0,4.22,3.42,7.64,7.64,7.64h91.7v-22.93ZM114.63,114.63h15.28v-53.49c0-8.44-6.84-15.28-15.28-15.28H22.93c-4.05,0-7.94,1.61-10.81,4.48-2.87,2.87-4.48,6.75-4.48,10.81v76.42c0,4.05,1.61,7.94,4.48,10.81,2.87,2.87,6.75,4.48,10.81,4.48h114.63v7.64H22.93c-12.66,0-22.93-10.26-22.93-22.93V61.13c0-12.66,10.26-22.93,22.93-22.93h91.7c12.66,0,22.93,10.26,22.93,22.93v61.13h-30.57v-30.57c0-2.03-.81-3.97-2.24-5.4-1.43-1.43-3.38-2.24-5.4-2.24h-61.13c-2.03,0-3.97.81-5.4,2.24-1.43,1.43-2.24,3.38-2.24,5.4v15.28c0,2.03.81,3.97,2.24,5.4,1.43,1.43,3.38,2.24,5.4,2.24h61.13v7.64h-61.13c-4.05,0-7.94-1.61-10.81-4.48-2.87-2.87-4.48-6.75-4.48-10.81v-15.28c0-8.44,6.84-15.28,15.28-15.28h61.13c8.44,0,15.28,6.84,15.28,15.28v22.93ZM405.02,61.13c0-4.05-1.61-7.94-4.48-10.81-2.87-2.87-6.75-4.48-10.81-4.48h-84.06v-15.28h84.06c8.11,0,15.88,3.22,21.61,8.95,5.73,5.73,8.95,13.51,8.95,21.61v30.57c0,8.11-3.22,15.88-8.95,21.61-5.73,5.73-13.51,8.95-21.61,8.95h-64.96c-7.09,0-13.9-2.82-18.91-7.83-5.02-5.02-7.83-11.82-7.83-18.91,0-14.77,11.97-26.75,26.75-26.75h80.24v-7.64ZM389.73,106.99c4.05,0,7.94-1.61,10.81-4.48,2.87-2.87,4.48-6.75,4.48-10.81v-7.64h-80.24c-3.04,0-5.96,1.21-8.11,3.36-2.15,2.15-3.36,5.06-3.36,8.1h0c0,3.04,1.21,5.96,3.36,8.11,2.15,2.15,5.06,3.36,8.11,3.36h64.96ZM466.15,122.27c-8.11,0-15.88-3.22-21.61-8.95-5.73-5.73-8.95-13.51-8.95-21.61v-30.57c0-8.11,3.22-15.88,8.95-21.61,5.73-5.73,13.51-8.95,21.61-8.95h61.13c8.11,0,15.88,3.22,21.61,8.95,5.73,5.73,8.95,13.51,8.95,21.61v30.57c0,8.11-3.22,15.88-8.95,21.61-5.73,5.73-13.51,8.95-21.61,8.95h-61.13ZM542.57,61.13c0-4.05-1.61-7.94-4.48-10.81-2.87-2.87-6.75-4.48-10.81-4.48h-61.13c-4.05,0-7.94,1.61-10.81,4.48-2.87,2.87-4.48,6.75-4.48,10.81v30.57c0,4.05,1.61,7.94,4.48,10.81,2.87,2.87,6.75,4.48,10.81,4.48h61.13c4.05,0,7.94-1.61,10.81-4.48,2.87-2.87,4.48-6.75,4.48-10.81v-30.57ZM855.88,76.42c4.05,0,7.94,1.61,10.81,4.48,2.87,2.87,4.48,6.75,4.48,10.81v15.28c0,8.44-6.84,15.28-15.28,15.28h-84.06c-8.44,0-15.28-6.84-15.28-15.28v-53.49c0-8.44,6.84-15.28,15.28-15.28h95.52v7.64h-95.52c-2.03,0-3.97.81-5.4,2.24s-2.24,3.38-2.24,5.4v22.93h91.7ZM764.18,106.99c0,4.22,3.42,7.64,7.64,7.64h84.06c4.22,0,7.64-3.42,7.64-7.64v-15.28c0-4.22-3.42-7.64-7.64-7.64h-91.7v22.93ZM894.09,76.42v45.85h-7.64v-45.85h7.64ZM565.49,114.63h45.85v7.64h-45.85v-7.64ZM909.38,122.27v-45.85h114.63v7.64h-106.99v30.57h91.7c4.05,0,7.94,1.61,10.81,4.48,2.87,2.87,4.48,6.75,4.48,10.81v15.28c0,8.44-6.84,15.28-15.28,15.28h-99.34v-7.64h99.34c2.03,0,3.97-.81,5.4-2.24,1.43-1.43,2.24-3.38,2.24-5.4v-15.28c0-2.03-.81-3.97-2.24-5.4-1.43-1.43-3.38-2.24-5.4-2.24h-99.34Z"/>
</svg>