<?xml version="1.0" encoding="UTF-8" standalone="no"?>
<!DOCTYPE svg PUBLIC "-//W3C//DTD SVG 1.1//EN" "http://www.w3.org/Graphics/SVG/1.1/DTD/svg11.dtd">
<svg width="100%" height="100%" viewBox="0 0 3840 2160" version="1.1" xmlns="http://www.w3.org/2000/svg" xmlns:xlink="http://www.w3.org/1999/xlink" xml:space="preserve" xmlns:serif="http://www.serif.com/" style="fill-rule:evenodd;clip-rule:evenodd;stroke-linejoin:round;stroke-miterlimit:2;">
    <g transform="matrix(1.43284,0,0,1.43284,-229.254,349.254)">
        <path d="M580,300L630,300L860,572.593L860,300L900,300L900,620L850,620L620,347.407L620,620L580,620L580,300ZM1840,620C1829.39,620 1819.22,615.786 1811.72,608.284C1804.21,600.783 1800,590.609 1800,580L1800,540C1800,517.909 1817.91,500 1840,500L2060,500C2082.09,500 2100,517.909 2100,540L2100,680C2100,702.091 2082.09,720 2060,720L1810,720L1810,700L2060,700C2065.3,700 2070.39,697.893 2074.14,694.142C2077.89,690.391 2080,685.304 2080,680L2080,620L1840,620ZM2080,540C2080,528.954 2071.05,520 2060,520L1840,520C1828.95,520 1820,528.954 1820,540L1820,580C1820,591.046 1828.95,600 1840,600L2080,600L2080,540ZM460,600L500,600L500,460C500,437.909 482.091,420 460,420L220,420C209.391,420 199.217,424.214 191.716,431.716C184.214,439.217 180,449.391 180,460L180,660C180,670.609 184.214,680.783 191.716,688.284C199.217,695.786 209.391,700 220,700L520,700L520,720L220,720C186.863,720 160,693.137 160,660L160,460C160,426.863 186.863,400 220,400L460,400C493.137,400 520,426.863 520,460L520,620L440,620L440,540C440,534.696 437.893,529.609 434.142,525.858C430.391,522.107 425.304,520 420,520L260,520C254.696,520 249.609,522.107 245.858,525.858C242.107,529.609 240,534.696 240,540L240,580C240,585.304 242.107,590.391 245.858,594.142C249.609,597.893 254.696,600 260,600L420,600L420,620L260,620C249.391,620 239.217,615.786 231.716,608.284C224.214,600.783 220,590.609 220,580L220,540C220,517.909 237.909,500 260,500L420,500C442.091,500 460,517.909 460,540L460,600ZM1220,460C1220,449.391 1215.79,439.217 1208.28,431.716C1200.78,424.214 1190.61,420 1180,420L960,420L960,380L1180,380C1201.22,380 1221.57,388.429 1236.57,403.431C1251.57,418.434 1260,438.783 1260,460L1260,540C1260,561.217 1251.57,581.566 1236.57,596.569C1221.57,611.571 1201.22,620 1180,620L1010,620C991.435,620 973.63,612.625 960.503,599.497C947.375,586.37 940,568.565 940,550C940,511.34 971.34,480 1010,480L1220,480L1220,460ZM1180,580C1190.61,580 1200.78,575.786 1208.28,568.284C1215.79,560.783 1220,550.609 1220,540L1220,520L1010,520C1002.04,520 994.412,523.16 988.786,528.786C983.16,534.412 980,542.042 980,549.998L980,550.002C980,557.958 983.16,565.588 988.786,571.214C994.412,576.84 1002.04,580 1010,580L1180,580ZM1380,620C1358.78,620 1338.43,611.571 1323.43,596.569C1308.43,581.566 1300,561.217 1300,540L1300,460C1300,438.783 1308.43,418.434 1323.43,403.431C1338.43,388.429 1358.78,380 1380,380L1540,380C1561.22,380 1581.57,388.429 1596.57,403.431C1611.57,418.434 1620,438.783 1620,460L1620,540C1620,561.217 1611.57,581.566 1596.57,596.569C1581.57,611.571 1561.22,620 1540,620L1380,620ZM1580,460C1580,449.391 1575.79,439.217 1568.28,431.716C1560.78,424.214 1550.61,420 1540,420L1380,420C1369.39,420 1359.22,424.214 1351.72,431.716C1344.21,439.217 1340,449.391 1340,460L1340,540C1340,550.609 1344.21,560.783 1351.72,568.284C1359.22,575.786 1369.39,580 1380,580L1540,580C1550.61,580 1560.78,575.786 1568.28,568.284C1575.79,560.783 1580,550.609 1580,540L1580,460ZM2400,500C2410.61,500 2420.78,504.214 2428.28,511.716C2435.79,519.217 2440,529.391 2440,540L2440,580C2440,602.091 2422.09,620 2400,620L2180,620C2157.91,620 2140,602.091 2140,580L2140,440C2140,417.909 2157.91,400 2180,400L2430,400L2430,420L2180,420C2174.7,420 2169.61,422.107 2165.86,425.858C2162.11,429.609 2160,434.696 2160,440L2160,500L2400,500ZM2160,580C2160,591.046 2168.95,600 2180,600L2400,600C2411.05,600 2420,591.046 2420,580L2420,540C2420,528.954 2411.05,520 2400,520L2160,520L2160,580ZM2500,500L2500,620L2480,620L2480,500L2500,500ZM1640,600L1760,600L1760,620L1640,620L1640,600ZM2540,620L2540,500L2840,500L2840,520L2560,520L2560,600L2800,600C2810.61,600 2820.78,604.214 2828.28,611.716C2835.79,619.217 2840,629.391 2840,640L2840,680C2840,702.091 2822.09,720 2800,720L2540,720L2540,700L2800,700C2805.3,700 2810.39,697.893 2814.14,694.142C2817.89,690.391 2820,685.304 2820,680L2820,640C2820,634.696 2817.89,629.609 2814.14,625.858C2810.39,622.107 2805.3,620 2800,620L2540,620Z"/>
    </g>
</svg>
