<?xml version="1.0" encoding="UTF-8"?>
<svg id="_レイヤー_1" data-name="レイヤー 1" xmlns="http://www.w3.org/2000/svg" viewBox="0 0 1080 927.98">
  <defs>
    <style>
      .cls-1 {
        fill: #f99367;
      }

      .cls-2 {
        fill: #008abc;
      }

      .cls-3 {
        fill: #6e5d47;
      }

      .cls-4 {
        fill: #f9f9f9;
      }

      .cls-5 {
        fill: #fce2f0;
      }

      .cls-6 {
        fill: #efe45e;
      }

      .cls-7 {
        fill: #114514;
      }

      .cls-8 {
        fill: #a2ddff;
      }
    </style>
  </defs>
  <polygon class="cls-1" points="420.12 287.55 419.04 285.95 226.08 0 121.42 0 0 745.51 0 927.98 315.82 927.98 420.12 287.55"/>
  <polygon class="cls-7" points="0 0 0 745.51 121.42 0 0 0"/>
  <polygon class="cls-8" points="419.04 285.95 420.12 287.55 420.32 286.32 419.04 285.95"/>
  <polygon class="cls-5" points="420.32 286.32 466.96 0 226.08 0 419.04 285.95 420.32 286.32"/>
  <g>
    <polygon class="cls-6" points="696.73 697.43 420.12 287.55 315.82 927.98 661.35 927.98 698.48 700.03 696.73 697.43"/>
    <polygon class="cls-2" points="661.35 927.98 852.31 927.98 698.48 700.03 661.35 927.98"/>
    <polygon class="cls-8" points="1080 809.45 1080 479.12 1028.64 794.44 1080 809.45"/>
    <polygon class="cls-8" points="698.8 698.04 750.17 382.72 420.32 286.32 420.12 287.55 696.73 697.43 698.8 698.04"/>
    <polygon class="cls-8" points="698.8 698.04 1028.64 794.44 1080 479.12 750.17 382.72 698.8 698.04"/>
    <polygon class="cls-4" points="812.5 0 570.95 0 801.52 67.39 812.5 0"/>
    <polygon class="cls-4" points="1080 148.78 1080 0 812.5 0 801.52 67.39 1080 148.78"/>
    <polygon class="cls-5" points="801.52 67.39 570.95 0 466.96 0 420.32 286.32 750.17 382.72 801.52 67.39"/>
    <polygon class="cls-5" points="801.52 67.39 750.17 382.72 1080 479.12 1080 148.78 801.52 67.39"/>
    <polygon class="cls-3" points="1028.64 794.44 1006.89 927.98 1080 927.98 1080 809.45 1028.64 794.44"/>
    <polygon class="cls-3" points="698.48 700.03 698.8 698.04 696.73 697.43 698.48 700.03"/>
    <polygon class="cls-3" points="698.8 698.04 698.48 700.03 852.31 927.98 1006.89 927.98 1028.64 794.44 698.8 698.04"/>
  </g>
</svg>