<?xml version="1.0" encoding="UTF-8"?>
<svg id="_レイヤー_1" data-name="レイヤー_1" xmlns="http://www.w3.org/2000/svg" xmlns:xlink="http://www.w3.org/1999/xlink" xmlns:serif="http://www.serif.com/" version="1.1" viewBox="0 0 1920 1080">
  <!-- Generator: Adobe Illustrator 29.2.1, SVG Export Plug-In . SVG Version: 2.1.0 Build 116)  -->
  <defs>
    <style>
      .st0 {
        fill: none;
      }

      .st1 {
        fill: #c52f27;
      }

      .st1, .st2, .st3 {
        fill-rule: evenodd;
      }

      .st2 {
        fill: #fff;
      }

      .st4 {
        fill: #d1ca4a;
      }

      .st3 {
        fill: #2f9c42;
      }

      .st5 {
        clip-path: url(#clippath);
      }
    </style>
    <clipPath id="clippath">
      <rect class="st0" width="1920" height="1080"/>
    </clipPath>
  </defs>
  <g class="st5">
    <rect width="1920" height="1080"/>
    <g>
      <path class="st1" d="M0,15h1675.8c6.6,0,13,2.6,17.7,7.3s7.3,11,7.3,17.7H0V15Z"/>
      <path class="st1" d="M-240,40h0c0-13.8,11.2-25,25-25H0v25h-240Z"/>
      <path class="st3" d="M1700.8,40c0,6.6-2.6,13-7.3,17.7-4.7,4.7-11,7.3-17.7,7.3H0v-25h1700.8Z"/>
      <path class="st3" d="M0,65h-215c-13.8,0-25-11.2-25-25h0S0,40,0,40v25Z"/>
    </g>
    <g>
      <path class="st1" d="M1750,40h0c0-13.8,11.2-25,25-25h145v25h-170Z"/>
      <path class="st1" d="M1920,15h1745.8c13.8,0,25,11.2,25,25h0s-1770.8,0-1770.8,0V15Z"/>
      <path class="st3" d="M1920,65h-145c-13.8,0-25-11.2-25-25h0s170,0,170,0v25Z"/>
      <path class="st3" d="M3690.8,40h0c0,13.8-11.2,25-25,25h-1745.8v-25h1770.8Z"/>
    </g>
    <g>
      <path class="st1" d="M0,115h575c13.8,0,25,11.2,25,25h0S0,140,0,140v-25Z"/>
      <path class="st1" d="M-1490.8,140h0c0-13.8,11.2-25,25-25H0v25h-1490.8Z"/>
      <path class="st3" d="M600,140h0c0,13.8-11.2,25-25,25H0v-25h600Z"/>
      <path class="st3" d="M0,165h-1465.8c-13.8,0-25-11.2-25-25h0S0,140,0,140v25Z"/>
    </g>
    <g>
      <path class="st1" d="M0,215h375c13.8,0,25,11.2,25,25H0v-25Z"/>
      <path class="st1" d="M-1490.8,240h0c0-6.6,2.6-13,7.3-17.7,4.7-4.7,11-7.3,17.7-7.3H0v25h-1490.8Z"/>
      <path class="st3" d="M400,240c0,13.8-11.2,25-25,25H0v-25h400Z"/>
      <path class="st3" d="M0,265h-1465.8c-6.6,0-13-2.6-17.7-7.3-4.7-4.7-7.3-11-7.3-17.7h0S0,240,0,240v25Z"/>
    </g>
    <g>
      <path class="st1" d="M0,315h325c6.6,0,13,2.6,17.7,7.3s7.3,11,7.3,17.7H0v-25Z"/>
      <path class="st1" d="M-1590.8,340h0c0-13.8,11.2-25,25-25H0v25h-1590.8Z"/>
      <path class="st3" d="M350,340c0,6.6-2.6,13-7.3,17.7-4.7,4.7-11,7.3-17.7,7.3H0v-25h350Z"/>
      <path class="st3" d="M0,365h-1565.8c-13.8,0-25-11.2-25-25h0S0,340,0,340v25Z"/>
    </g>
    <g>
      <path class="st1" d="M-1340.8,440h0c0-13.8,11.2-25,25-25H0v25h-1340.8Z"/>
      <path class="st1" d="M0,415h575c13.8,0,25,11.2,25,25h0s-600,0-600,0v-25Z"/>
      <path class="st3" d="M600,440h0c0,13.8-11.2,25-25,25H0v-25h600Z"/>
      <path class="st3" d="M0,465h-1315.8c-13.8,0-25-11.2-25-25h0s1340.8,0,1340.8,0v25Z"/>
    </g>
    <g>
      <path class="st1" d="M0,515h475c13.8,0,25,11.2,25,25h0s-500,0-500,0v-25Z"/>
      <path class="st1" d="M-1440.8,540c0-6.6,2.6-13,7.3-17.7,4.7-4.7,11-7.3,17.7-7.3H0v25h-1440.8Z"/>
      <path class="st3" d="M500,540h0c0,13.8-11.2,25-25,25H0v-25h500Z"/>
      <path class="st3" d="M0,565h-1415.8c-6.6,0-13-2.6-17.7-7.3-4.7-4.7-7.3-11-7.3-17.7H0v25Z"/>
    </g>
    <g>
      <path class="st1" d="M0,615h625c13.8,0,25,11.2,25,25h0s-650,0-650,0v-25Z"/>
      <path class="st1" d="M-1090.8,640c0-13.8,11.2-25,25-25H0v25h-1090.8Z"/>
      <path class="st3" d="M650,640h0c0,13.8-11.2,25-25,25H0v-25h650Z"/>
      <path class="st3" d="M0,665h-1065.8c-13.8,0-25-11.2-25-25H0v25Z"/>
    </g>
    <g>
      <path class="st1" d="M-540.8,740h0c0-13.8,11.2-25,25-25H0v25h-540.8Z"/>
      <path class="st1" d="M0,715h1375c6.6,0,13,2.6,17.7,7.3s7.3,11,7.3,17.7H0v-25Z"/>
      <path class="st3" d="M0,765h-515.8c-13.8,0-25-11.2-25-25h0S0,740,0,740v25Z"/>
      <path class="st3" d="M1400,740c0,6.6-2.6,13-7.3,17.7-4.7,4.7-11,7.3-17.7,7.3H0v-25h1400Z"/>
    </g>
    <g>
      <path class="st1" d="M-1290.8,840c0-6.6,2.6-13,7.3-17.7,4.7-4.7,11-7.3,17.7-7.3H0v25h-1290.8Z"/>
      <path class="st1" d="M0,815h625c13.8,0,25,11.2,25,25h0s-650,0-650,0v-25Z"/>
      <path class="st3" d="M0,865h-1265.8c-6.6,0-13-2.6-17.7-7.3-4.7-4.7-7.3-11-7.3-17.7H0v25Z"/>
      <path class="st3" d="M650,840h0c0,13.8-11.2,25-25,25H0v-25h650Z"/>
    </g>
    <g>
      <path class="st1" d="M-1490.8,940h0c0-13.8,11.2-25,25-25H0v25h-1490.8Z"/>
      <path class="st1" d="M0,915h425c6.6,0,13,2.6,17.7,7.3s7.3,11,7.3,17.7H0v-25Z"/>
      <path class="st3" d="M0,965h-1465.8c-13.8,0-25-11.2-25-25h0s1490.8,0,1490.8,0v25Z"/>
      <path class="st3" d="M450,940c0,6.6-2.6,13-7.3,17.7-4.7,4.7-11,7.3-17.7,7.3H0v-25h450Z"/>
    </g>
    <g>
      <path class="st1" d="M-1420.8,1040h0c0-13.8,11.2-25,25-25H0v25h-1420.8Z"/>
      <path class="st1" d="M0,1015h495c6.6,0,13,2.6,17.7,7.3s7.3,11,7.3,17.7H0v-25Z"/>
      <path class="st3" d="M0,1065h-1395.8c-6.6,0-13-2.6-17.7-7.3-4.7-4.7-7.3-11-7.3-17.7H0v25Z"/>
      <path class="st3" d="M520,1040c0,6.6-2.6,13-7.3,17.7-4.7,4.7-11,7.3-17.7,7.3H0v-25h520Z"/>
    </g>
    <g>
      <path class="st1" d="M1920,915h1345c6.6,0,13,2.6,17.7,7.3s7.3,11,7.3,17.7h-1370v-25Z"/>
      <path class="st1" d="M1349.2,940h0c0-13.8,11.2-25,25-25h545.8v25h-570.8Z"/>
      <path class="st3" d="M3290,940c0,6.6-2.6,13-7.3,17.7-4.7,4.7-11,7.3-17.7,7.3h-1345v-25h1370Z"/>
      <path class="st3" d="M1920,965h-545.8c-13.8,0-25-11.2-25-25h0s570.8,0,570.8,0v25Z"/>
    </g>
    <g>
      <path class="st1" d="M1920,1015h1445c6.6,0,13,2.6,17.7,7.3s7.3,11,7.3,17.7h-1470v-25Z"/>
      <path class="st1" d="M1449.2,1040c0-6.6,2.6-13,7.3-17.7,4.7-4.7,11-7.3,17.7-7.3h445.8v25h-470.8Z"/>
      <path class="st3" d="M1920,1065h-445.8c-13.8,0-25-11.2-25-25h0s470.8,0,470.8,0v25Z"/>
      <path class="st3" d="M3390,1040h0c0,13.8-11.2,25-25,25h-1445v-25h1470Z"/>
    </g>
    <g>
      <path class="st1" d="M1129.6,140h0c0-13.8,11.2-25,25-25h765.4v25h-790.4Z"/>
      <path class="st1" d="M1920,115h1125.4c13.8,0,25,11.2,25,25h0s-1150.4,0-1150.4,0v-25Z"/>
      <path class="st3" d="M1920,165h-765.4c-13.8,0-25-11.2-25-25h0s790.4,0,790.4,0v25Z"/>
      <path class="st3" d="M3070.4,140h0c0,13.8-11.2,25-25,25h-1125.4v-25h1150.4Z"/>
    </g>
    <g>
      <path class="st1" d="M1500,240h0c0-13.8,11.2-25,25-25h395v25h-420Z"/>
      <path class="st1" d="M1920,215h1495.8c6.6,0,13,2.6,17.7,7.3s7.3,11,7.3,17.7h-1520.8v-25Z"/>
      <path class="st3" d="M1920,265h-395c-13.8,0-25-11.2-25-25h0s420,0,420,0v25Z"/>
      <path class="st3" d="M3440.8,240c0,6.6-2.6,13-7.3,17.7-4.7,4.7-11,7.3-17.7,7.3h-1495.8v-25h1520.8Z"/>
    </g>
    <g>
      <path class="st1" d="M1550,340h0c0-13.8,11.2-25,25-25h345v25h-370Z"/>
      <path class="st1" d="M1920,315h1545.8c13.8,0,25,11.2,25,25h0s-1570.8,0-1570.8,0v-25Z"/>
      <path class="st3" d="M1920,365h-345c-13.8,0-25-11.2-25-25h0s370,0,370,0v25Z"/>
      <path class="st3" d="M3490.8,340h0c0,13.8-11.2,25-25,25h-1545.8v-25h1570.8Z"/>
    </g>
    <g>
      <path class="st1" d="M1500,440h0c0-6.6,2.6-13,7.3-17.7,4.7-4.7,11-7.3,17.7-7.3h395v25h-420Z"/>
      <path class="st1" d="M1920,415h1400.4c6.6,0,13,2.6,17.7,7.3,4.7,4.7,7.3,11,7.3,17.7h0s-1425.4,0-1425.4,0v-25Z"/>
      <path class="st3" d="M1920,465h-395c-6.6,0-13-2.6-17.7-7.3-4.7-4.7-7.3-11-7.3-17.7h0s420,0,420,0v25Z"/>
      <path class="st3" d="M3345.4,440h0c0,6.6-2.6,13-7.3,17.7-4.7,4.7-11,7.3-17.7,7.3h-1400.4v-25h1425.4Z"/>
    </g>
    <g>
      <path class="st1" d="M1920,515h1295.8c13.8,0,25,11.2,25,25h0s-1320.8,0-1320.8,0v-25Z"/>
      <path class="st1" d="M1300,540h0c0-13.8,11.2-25,25-25h595v25h-620Z"/>
      <path class="st3" d="M3240.8,540h0c0,13.8-11.2,25-25,25h-1295.8v-25h1320.8Z"/>
      <path class="st3" d="M1920,565h-595c-13.8,0-25-11.2-25-25h0s620,0,620,0v25Z"/>
    </g>
    <g>
      <path class="st1" d="M1920,615h1195.8c6.6,0,13,2.6,17.7,7.3,4.7,4.7,7.3,11,7.3,17.7h0s-1220.8,0-1220.8,0v-25Z"/>
      <path class="st1" d="M1250,640h0c0-6.6,2.6-13,7.3-17.7,4.7-4.7,11-7.3,17.7-7.3h645v25h-670Z"/>
      <path class="st3" d="M3140.8,640h0c0,6.6-2.6,13-7.3,17.7-4.7,4.7-11,7.3-17.7,7.3h-1195.8v-25h1220.8Z"/>
      <path class="st3" d="M1920,665h-645c-6.6,0-13-2.6-17.7-7.3-4.7-4.7-7.3-11-7.3-17.7h0s670,0,670,0v25Z"/>
    </g>
    <g>
      <path class="st1" d="M1920,715h1495.8c6.6,0,13,2.6,17.7,7.3s7.3,11,7.3,17.7h-1520.8v-25Z"/>
      <path class="st1" d="M1500,740h0c0-13.8,11.2-25,25-25h395v25h-420Z"/>
      <path class="st3" d="M3440.8,740c0,6.6-2.6,13-7.3,17.7-4.7,4.7-11,7.3-17.7,7.3h-1495.8v-25h1520.8Z"/>
      <path class="st3" d="M1920,765h-395c-13.8,0-25-11.2-25-25h0s420,0,420,0v25Z"/>
    </g>
    <g>
      <path class="st1" d="M1920,815v25h870.8c0-13.8-11.2-25-25-25h-845.8Z"/>
      <path class="st1" d="M850,840h0c0-13.8,11.2-25,25-25h1045v25H850Z"/>
      <path class="st3" d="M1920,865H875c-13.8,0-25-11.2-25-25h0s1070,0,1070,0v25Z"/>
      <path class="st3" d="M2790.8,840h0c0,13.8-11.2,25-25,25h-845.8v-25h870.8Z"/>
    </g>
    <g>
      <path class="st4" d="M555.5,378.9c34.2,0,59.9-20.7,64.7-51.5v-1.1c.1,0-23.7,0-23.7,0l-.3,1c-5.8,19.6-20.1,30.4-40.7,30.4s-47.2-23-47.2-58.8h0c0-35.9,18.4-58.7,47.2-58.7s35.2,11,40.3,29.2l.6,2.1h23.8l-.2-1c-4.8-30.6-30.5-51.6-64.6-51.6s-71.8,30.7-71.8,79.8h0c0,49.2,27.9,80.1,71.8,80.1Z"/>
      <path class="st4" d="M687.4,378.6c27.4,0,44.7-16.3,48.4-34.2l.2-1.2h-22l-.3.9c-2.9,8.5-12,15.6-25.7,15.6s-30.1-12.4-30.6-33.8h79.9v-7.8c0-33.9-19.4-56.6-51.1-56.6s-52,23.6-52,58.9h0c0,35.7,20.1,58.4,53.2,58.4ZM686.3,280.3c15.1,0,26.1,9.5,28,29.1h-56.6c2-18.9,13.6-29.1,28.6-29.1Z"/>
      <rect class="st4" x="756" y="221.5" width="23.2" height="154.8"/>
      <path class="st4" d="M851.2,378.6c27.4,0,44.7-16.3,48.4-34.2l.2-1.2h-22l-.3.9c-2.9,8.5-12,15.6-25.7,15.6s-30.1-12.4-30.6-33.8h79.9v-7.8c0-33.9-19.4-56.6-51.1-56.6s-52,23.6-52,58.9h0c0,35.7,20.1,58.4,53.2,58.4ZM850.1,280.3c15.1,0,26.1,9.5,28,29.1h-56.6c2-18.9,13.6-29.1,28.6-29.1Z"/>
      <path class="st4" d="M978.9,378.6c28.6,0,47.2-22.7,47.2-58.7h0c0-36-18.7-58.6-47-58.6s-28.9,8-35.6,21.3h-.5v-61.1h-23.2v154.8h23.2v-19.1h.5c6.7,13.2,19.2,21.3,35.4,21.3ZM972.8,358.6c-17.6,0-29.9-15.2-29.9-38.7h0c0-23.5,12.4-38.7,29.9-38.7s29.6,14.8,29.6,38.6h0c0,24.1-11.4,38.8-29.6,38.8Z"/>
      <path class="st4" d="M1044,376.3h23.2v-67.3c0-16.8,9.2-26.6,24.1-26.6s8.6.5,10.4,1.3v-21.6c-1.8-.3-4.7-.9-8-.9-12.9,0-22.3,8.3-26,21.5h-.5v-19.3h-23.2v112.8Z"/>
      <path class="st4" d="M1146.9,378.4c14.9,0,28-7.7,34.5-19.8h.4v17.8h23.3v-77.8c0-22.6-17.5-37.2-45-37.2s-44.6,14.9-46.2,34.3v1.2c-.1,0,21.8,0,21.8,0l.2-1c1.9-9,10.2-15.3,23.6-15.3s22.4,7.5,22.4,19.9v8.5l-30.7,1.8c-26.7,1.6-41.9,13.6-41.9,33.3v.2c0,20.3,15.1,34.1,37.7,34.1ZM1132.6,343.7v-.2c0-9.5,7.7-15.7,21.7-16.5l27.6-1.7v8.8c0,14.7-12.3,25.7-28.6,25.7s-20.6-6.2-20.6-16.1Z"/>
      <path class="st4" d="M1267.1,378.6c4.7,0,9.1-.5,11.8-1v-17.9c-1.7.2-3.8.4-6.2.4-9.8,0-14.9-3.4-14.9-14.9v-63.3h21.1v-18.4h-21.1v-29.4h-23.7v29.4h-16.2v18.4h16.2v64.7c0,22.5,10.7,32,33,32Z"/>
      <path class="st4" d="M1343.5,378.6c27.4,0,44.7-16.3,48.4-34.2l.2-1.2h-22l-.3.9c-2.9,8.5-12,15.6-25.7,15.6s-30.1-12.4-30.6-33.8h79.9v-7.8c0-33.9-19.4-56.6-51.1-56.6s-52,23.6-52,58.9h0c0,35.7,20.1,58.4,53.2,58.4ZM1342.4,280.3c15.1,0,26.1,9.5,28,29.1h-56.6c2-18.9,13.6-29.1,28.6-29.1Z"/>
      <path class="st4" d="M1404.3,407.4h16.3l15.7-54.9h-23.2l-8.8,54.9Z"/>
      <path class="st4" d="M770.7,598.6c38.9,0,62.5-23.1,62.5-57v-100.4h-23.9v98.5c0,22.5-13.9,37.6-38.6,37.6s-38.7-15.1-38.7-37.6v-98.5h-24v100.4c0,33.9,23.9,57,62.7,57Z"/>
      <path class="st4" d="M859,596h23.2v-65.8c0-17.6,10.5-29.4,26.8-29.4s24,9.5,24,26.5v68.6h23.3v-73c0-26-14.3-41.9-39-41.9s-28.6,7.7-34.5,19.2h-.5v-17.1h-23.2v112.8Z"/>
      <path class="st4" d="M991.2,465.8c7.6,0,13.5-6,13.5-13.3s-5.9-13.4-13.5-13.4-13.5,6-13.5,13.4,6,13.3,13.5,13.3ZM979.6,596h23.2v-112.8h-23.2v112.8Z"/>
      <path class="st4" d="M1066.2,598.2c4.7,0,9.1-.5,11.8-1v-17.9c-1.7.2-3.8.4-6.2.4-9.8,0-14.9-3.4-14.9-14.9v-63.3h21.1v-18.4h-21.1v-29.4h-23.7v29.4h-16.2v18.4h16.2v64.7c0,22.5,10.7,32,33,32Z"/>
      <path class="st4" d="M1110.4,633.6c22.1,0,33.9-9,42.3-32.4l42-118.1h-24.5l-28.4,91.8h-.8l-28.4-91.8h-25.1l41.1,112.9-1.9,5.4c-3.9,10.9-9.9,13.8-20.8,13.8s-5.8-.4-7.6-.9v18.1c2.8.5,7.6,1.1,12.1,1.1Z"/>
      <path class="st4" d="M1205.8,597.6c7.8,0,14.1-6.2,14.1-14.1s-6.2-14.1-14.1-14.1-14.2,6.1-14.2,14.1,6.2,14.1,14.2,14.1Z"/>
    </g>
    <path class="st2" d="M741.8,933.8h11.9l54.5,64.6v-64.6h9.5v75.9h-11.9l-54.5-64.6v64.6h-9.5v-75.9ZM1040.6,1009.7c-2.5,0-4.9-1-6.7-2.8-1.8-1.8-2.8-4.2-2.8-6.7v-9.5c0-5.2,4.2-9.5,9.5-9.5h52.2c5.2,0,9.5,4.2,9.5,9.5v33.2c0,5.2-4.2,9.5-9.5,9.5h-59.3v-4.7h59.3c1.3,0,2.5-.5,3.4-1.4.9-.9,1.4-2.1,1.4-3.4v-14.2h-56.9ZM1097.5,990.7c0-2.6-2.1-4.7-4.7-4.7h-52.2c-2.6,0-4.7,2.1-4.7,4.7v9.5c0,2.6,2.1,4.7,4.7,4.7h56.9v-14.2ZM713.4,1004.9h9.5v-33.2c0-5.2-4.2-9.5-9.5-9.5h-56.9c-2.5,0-4.9,1-6.7,2.8-1.8,1.8-2.8,4.2-2.8,6.7v47.4c0,2.5,1,4.9,2.8,6.7,1.8,1.8,4.2,2.8,6.7,2.8h71.1v4.7h-71.1c-7.9,0-14.2-6.4-14.2-14.2v-47.4c0-7.9,6.4-14.2,14.2-14.2h56.9c7.9,0,14.2,6.4,14.2,14.2v37.9h-19v-19c0-1.3-.5-2.5-1.4-3.4-.9-.9-2.1-1.4-3.4-1.4h-37.9c-1.3,0-2.5.5-3.4,1.4-.9.9-1.4,2.1-1.4,3.4v9.5c0,1.3.5,2.5,1.4,3.4.9.9,2.1,1.4,3.4,1.4h37.9v4.7h-37.9c-2.5,0-4.9-1-6.7-2.8-1.8-1.8-2.8-4.2-2.8-6.7v-9.5c0-5.2,4.2-9.5,9.5-9.5h37.9c5.2,0,9.5,4.2,9.5,9.5v14.2ZM893.6,971.7c0-2.5-1-4.9-2.8-6.7-1.8-1.8-4.2-2.8-6.7-2.8h-52.2v-9.5h52.2c5,0,9.9,2,13.4,5.6,3.6,3.6,5.6,8.4,5.6,13.4v19c0,5-2,9.9-5.6,13.4-3.6,3.6-8.4,5.6-13.4,5.6h-40.3c-4.4,0-8.6-1.7-11.7-4.9-3.1-3.1-4.9-7.3-4.9-11.7,0-9.2,7.4-16.6,16.6-16.6h49.8v-4.7ZM884.1,1000.2c2.5,0,4.9-1,6.7-2.8,1.8-1.8,2.8-4.2,2.8-6.7v-4.7h-49.8c-1.9,0-3.7.7-5,2.1-1.3,1.3-2.1,3.1-2.1,5h0c0,1.9.7,3.7,2.1,5,1.3,1.3,3.1,2.1,5,2.1h40.3ZM931.5,1009.7c-5,0-9.9-2-13.4-5.6-3.6-3.6-5.6-8.4-5.6-13.4v-19c0-5,2-9.9,5.6-13.4,3.6-3.6,8.4-5.6,13.4-5.6h37.9c5,0,9.9,2,13.4,5.6,3.6,3.6,5.6,8.4,5.6,13.4v19c0,5-2,9.9-5.6,13.4-3.6,3.6-8.4,5.6-13.4,5.6h-37.9ZM979,971.7c0-2.5-1-4.9-2.8-6.7-1.8-1.8-4.2-2.8-6.7-2.8h-37.9c-2.5,0-4.9,1-6.7,2.8-1.8,1.8-2.8,4.2-2.8,6.7v19c0,2.5,1,4.9,2.8,6.7,1.8,1.8,4.2,2.8,6.7,2.8h37.9c2.5,0,4.9-1,6.7-2.8,1.8-1.8,2.8-4.2,2.8-6.7v-19ZM1173.4,981.2c2.5,0,4.9,1,6.7,2.8,1.8,1.8,2.8,4.2,2.8,6.7v9.5c0,5.2-4.2,9.5-9.5,9.5h-52.2c-5.2,0-9.5-4.2-9.5-9.5v-33.2c0-5.2,4.2-9.5,9.5-9.5h59.3v4.7h-59.3c-1.3,0-2.5.5-3.4,1.4s-1.4,2.1-1.4,3.4v14.2h56.9ZM1116.5,1000.2c0,2.6,2.1,4.7,4.7,4.7h52.2c2.6,0,4.7-2.1,4.7-4.7v-9.5c0-2.6-2.1-4.7-4.7-4.7h-56.9v14.2ZM1197.1,981.2v28.5h-4.7v-28.5h4.7ZM993.2,1004.9h28.5v4.7h-28.5v-4.7ZM1206.6,1009.7v-28.5h71.1v4.7h-66.4v19h56.9c2.5,0,4.9,1,6.7,2.8,1.8,1.8,2.8,4.2,2.8,6.7v9.5c0,5.2-4.2,9.5-9.5,9.5h-61.7v-4.7h61.7c1.3,0,2.5-.5,3.4-1.4.9-.9,1.4-2.1,1.4-3.4v-9.5c0-1.3-.5-2.5-1.4-3.4-.9-.9-2.1-1.4-3.4-1.4h-61.7Z"/>
  </g>
</svg>